<?xml version="1.0" encoding="utf-8"?>
<!-- Generator: Adobe Illustrator 15.1.0, SVG Export Plug-In . SVG Version: 6.00 Build 0)  -->
<!DOCTYPE svg PUBLIC "-//W3C//DTD SVG 1.1//EN" "http://www.w3.org/Graphics/SVG/1.1/DTD/svg11.dtd">
<svg version="1.1" id="圖層_1" xmlns="http://www.w3.org/2000/svg" xmlns:xlink="http://www.w3.org/1999/xlink" x="0px" y="0px"
	 width="386.793px" height="521.242px" viewBox="0 0 386.793 521.242" enable-background="new 0 0 386.793 521.242"
	 xml:space="preserve">
<rect fill="none" width="386.793" height="521.242"/>
<path d="M233.327,86.407v-1.581l-12.303-3.349h-55.101l-12.467,3.481v1.986l-7.527-4.338l6.563-1.64l12.883-3.593h56.163
	l14.65,3.976v0.096l4.623,1.153L233.327,86.407z M229.717,186.401h-5.78V92.289l5.78,1.296V186.401z M213.2,186.401h-16.762V92.036
	H213.2V186.401z M190.361,186.401h-16.614V92.036h16.614V186.401z M162.736,186.401h-5.321V93.584l5.321-1.296V186.401z M140.561,84
	v-0.05h0.027L140.561,84z M280.806,32.723l3.854-3.513c0,0-2.367-4.206-5.016-4.206c-2.65,0-4.723,3.61-4.723,3.61
	s-2.283-4.504-4.939-3.011c-2.646,1.501-1.469,4.794-2.646,3.891c-1.191-0.88-4.428-3.297-7.309-1.485
	c-2.406,1.485-0.597,3.591,0,4.714c0.577,1.128-1.484,2.393-2.377,3.599c-0.87,1.195-0.273,3.593-0.273,3.593l-14.103,0.599
	l-22.149-7.274c0,0-5.158-0.176-10.396-0.434c0.176-0.426,0.245-0.881,0.245-1.366c0-2.229-1.772-4.038-3.978-4.038
	c-1.225,0-2.311,0.586-3.062,1.469c-0.75-2.797-3.315-5.067-6.651-6.044c4.107-4.522,2-7.852-0.525-11.738
	c-2.627-3.995,0.549-8.307,0.549-8.307S196.608,0,193.43,0c-3.188,0-3.942,2.782-3.942,2.782s3.157,4.312,0.554,8.307
	c-2.577,3.931-4.695,7.272-0.417,11.865c-3.264,1.06-5.689,3.389-6.352,6.197c-0.702-1.051-1.9-1.749-3.266-1.749
	c-2.196,0-3.976,1.808-3.976,4.038c0,0.485,0.101,0.94,0.25,1.366c-5.169,0.258-10.247,0.434-10.247,0.434l-22.529,7.274
	l-14.08-0.599c0,0,0.577-2.398-0.309-3.593c-0.878-1.206-2.947-2.471-2.348-3.599c0.6-1.123,2.388-3.229,0-4.714
	c-2.882-1.812-6.137,0.605-7.311,1.485c-1.174,0.903,0-2.39-2.641-3.891c-2.654-1.493-4.94,3.011-4.94,3.011s-2.088-3.61-4.727-3.61
	c-2.654,0-5.014,4.206-5.014,4.206l3.84,3.513c0,0-0.881,0.607,0.301,2.994c1.161,2.393,5.294,3.599,5.002,4.499
	c-0.288,0.886-5.417,0.412-4.129,3.59c0.583,1.47,7.981,1.903,15.079,2.188v27.053c-1.608,0.717-2.771,2.71-2.771,5.097
	c0,2.38,1.163,4.376,2.771,5.098v0.276h-2.547l-1.544,37.948h4.091v12.231c-2.872,0.607-4.999,3.167-4.999,6.236
	c0,3.13,2.228,5.728,5.137,6.266h-2.768l-1.544,56.52h10.737l-1.536-56.52h-2.618c2.925-0.538,5.136-3.136,5.136-6.266
	c0-3.069-2.132-5.629-4.995-6.236v-12.231h4.072l-1.525-37.948h-2.547V83.23c1.589-0.721,2.744-2.717,2.744-5.087
	c0-2.374-1.155-4.351-2.744-5.072V46.109c5.978,0.228,11.091,0.442,10.846,1.224v37.519c0,0-5.026,2.079-4.435,2.989
	c0.583,0.908,0.583,1.799,0.583,1.799s-4.404,4.118-1.77,6.218c2.657,2.092,3.849,0.306,3.548,1.493
	c-0.292,1.204-1.378,3.82,1.762,4.203c4.491,0.538,4.906-6.353,5.169-14.98l12.976,7.463v92.571h-0.3l-4.579,4.104v12.034h4.879
	v0.05h39.904h39.968v-0.05h5.271v-12.034l-5.271-3.936V93.303l12.988-6.601c0.262,8.56,0.678,15.39,5.152,14.852
	c3.162-0.383,2.07-2.999,1.763-4.203c-0.288-1.187,0.878,0.599,3.552-1.493c2.649-2.1-1.769-6.218-1.769-6.218s0-0.891,0.586-1.799
	c0.577-0.91-4.425-2.989-4.425-2.989V47.333c-0.262-0.782,4.828-0.996,10.77-1.224v26.963c-1.604,0.721-2.747,2.698-2.747,5.072
	c0,2.37,1.146,4.366,2.747,5.087v0.287h-2.55l-1.538,37.948h4.088v12.231c-2.854,0.607-4.992,3.167-4.992,6.236
	c0,3.226,2.348,5.874,5.402,6.308h-3.034l-1.325,56.478h10.721l-1.74-56.478h-2.885c3.051-0.434,5.397-3.082,5.397-6.308
	c0-3.069-2.125-5.629-4.999-6.236v-12.231h4.094l-1.543-37.948h-2.551v-0.276c1.607-0.722,2.778-2.718,2.778-5.098
	c0-2.387-1.171-4.38-2.778-5.097V45.994c7.117-0.285,14.555-0.718,15.155-2.188c1.276-3.178-3.821-2.704-4.12-3.59
	c-0.298-0.9,3.814-2.106,5.01-4.499C281.702,33.33,280.806,32.723,280.806,32.723"/>
<rect fill="none" width="386.793" height="521.242"/>
<path d="M33.74,407.055v-5.072h-7.038v-136.89h3.724c8.856,0,11.632,16.494,12.553,37.407h2.198l-0.576-42.472H0.919L0,302.5h2.175
	c1.645-21.783,2.481-37.407,10.548-37.407h5.755v136.89h-7.037v5.072H33.74z"/>
<rect fill="none" width="386.793" height="521.242"/>
<path d="M230.991,407.055l0.936-41.16h-1.623c-1.012,14.073-4.327,36.088-11.285,36.088h-15.172v-136.89h7.8v-5.065h-22.993v5.065
	h6.955v136.89h-6.955v5.072H230.991z"/>
<rect fill="none" width="386.793" height="521.242"/>
<path d="M337.116,260.027v5.047h6.533v104.687c0,24.579,7.025,40.165,17.965,40.165c12.803,0,18.664-16.449,18.664-50.92v-93.932
	h6.516v-5.047h-15.336v5.047h6.537v87.121c0,27.871-1.635,50.481-14.342,50.481c-10.252,0-11.791-23.696-11.791-28.757V265.074
	h6.617v-5.047H337.116z"/>
<rect fill="none" width="386.793" height="521.242"/>
<polygon points="65.078,346.415 65.078,298.13 71.376,298.13 71.376,294.232 50.915,294.232 50.915,298.13 57.224,298.13 
	57.224,403.162 50.915,403.162 50.915,407.072 71.376,407.072 71.376,403.162 65.078,403.162 65.078,351.323 88.36,351.323 
	88.36,403.162 82.055,403.162 82.055,407.072 102.531,407.072 102.531,403.162 96.22,403.162 96.22,298.13 102.531,298.13 
	102.531,294.232 82.055,294.232 82.055,298.13 88.36,298.13 88.36,346.415 "/>
<rect fill="none" width="386.793" height="521.242"/>
<path d="M150.146,407.072l1.06-31.596h-2.121c-2.072,24.985-5.644,27.686-16.32,27.686h-9.784v-52.178
	c8.006,0.158,11.392,2.367,11.884,20.43h1.776v-42.719h-1.776c-1.134,17.902-3.707,18.07-11.884,18.07V298.13h10.506
	c7.378,0,12.377,3.529,13.755,23.638h1.776v-27.535h-41.006v3.897h7.118v105.032h-7.118v3.91H150.146z"/>
<rect fill="none" width="386.793" height="521.242"/>
<path d="M333.278,407.072l0.895-31.596h-1.537c-0.959,10.82-4.121,27.686-10.766,27.686h-14.463V298.13h7.438v-3.897h-21.916v3.897
	h6.629v105.032h-6.629v3.91H333.278z"/>
<rect fill="none" width="386.793" height="521.242"/>
<path d="M253.358,407.072v-3.91h-6.951l5.732-37.139h15.453l5.585,37.139h-6.556v3.91h20.381v-3.91h-5.67l-16.645-110.449h-3.17
	l-17.527,110.449h-6.4v3.91H253.358z M252.864,361.283l7.122-45.764h0.165l6.645,45.764H252.864z"/>
<rect fill="none" width="386.793" height="521.242"/>
<path d="M46.597,478.549c6.255,0.472,9.521,1.887,9.811,4.268c0,0.966-0.114,1.691-0.322,2.259
	c-0.559,1.238-1.357,1.891-2.582,1.891c-0.737,0-1.711-0.966-2.983-2.936c-1.23-1.896-2.681-3.478-4.384-4.723
	C46.35,479.164,46.512,478.935,46.597,478.549 M61.444,473.266c0,0.196,0.349,0.361,0.961,0.444
	c-0.961,4.953-2.452,11.408-4.374,19.438c-1.666,7.854-2.536,12.348-2.536,13.488c0,1.282,0.247,2.824,0.799,4.703
	c0.537,1.738,0.825,3.042,0.825,3.895c0,2.013-1.073,2.995-3.301,2.995c-2.616,0-3.963-1.243-4.035-3.748
	c0-0.823,0.218-2.574,0.647-5.28c0-2.244-0.429-3.683-1.339-4.315c-0.588-0.521-1.565-0.983-2.811-1.441
	c0.027-0.441,0.088-0.814,0.16-1.046c0.386,0,0.806,0,1.158,0.028c2.403-0.028,4.107-1.467,5.108-4.267L61.444,473.266z
	 M49.373,463.736c6.402,0.6,9.744,2.112,9.947,4.645c0,0.916-0.075,1.684-0.28,2.287c-0.404,1.242-1.285,1.842-2.541,1.842
	c-0.724,0-1.728-0.996-3.014-2.995c-1.304-2.017-2.794-3.688-4.516-4.921C49.155,464.461,49.291,464.154,49.373,463.736
	 M62.634,478.33c2.084,0.219,4.243,0.52,6.556,0.863c1.623,0.303,2.416,0.755,2.416,1.358c0,0.35-0.343,0.629-1.088,0.743
	c-1.097,0.423-1.722,0.748-1.722,0.966v21.658c0.122,3.699,0.236,6.798,0.258,9.273h28.16c0-2.608,0.059-5.889,0.059-9.802v-20.688
	c-0.059-1.999-0.267-3.902-0.525-5.792c2.058,0.253,4.195,0.591,6.54,1.02c1.568,0.256,2.451,0.642,2.451,1.189
	c0,0.394-0.351,0.694-1.075,0.852c-1.16,0.41-1.741,0.732-1.741,0.93v22.655c0.091,6.915,0.195,11.735,0.28,14.485
	c0,1.057-1.4,1.589-4.08,1.589c-1.36,0-2.055-0.375-2.055-1.155c0.042-0.881,0.069-2.095,0.146-3.633h-28.16
	c0.045,1.438,0.045,2.661,0.045,3.58c0,1.038-1.331,1.524-4.032,1.524c-1.361,0-2.053-0.39-2.053-1.14
	c0.096-2.428,0.138-7.469,0.168-15.107v-19.616C63.051,482.115,62.895,480.178,62.634,478.33 M98.111,460.99
	c0.661,0.175,1.6,0.966,2.904,2.402c1.874,1.865,2.811,3.223,2.811,3.958c-0.032,0.632-1.009,0.922-2.883,0.922
	c-0.085,0-0.62-0.038-1.605-0.038c-3.127,1.799-7.41,3.798-12.909,6.051c1.315,0.338,2.084,0.73,2.289,1.075
	c0,0.349-0.146,0.562-0.447,0.662c-0.453,0.116-1.003,0.352-1.642,0.609c-0.551,0.313-0.793,0.593-0.793,0.779v8.396
	c2.126-2.78,3.691-5.837,4.591-9.177c0.939,0.593,2.467,1.476,4.599,2.754c1.113,0.695,1.648,1.214,1.648,1.476
	c-0.016,0.373-0.33,0.566-0.892,0.566c-1.046,0.04-1.743,0.114-2.121,0.168c-1.193,1.293-2.468,2.488-3.857,3.593
	c-1.179,0.968-2.505,1.806-3.968,2.477v3.048c6.497,0.998,9.909,3.511,10.165,7.586c0,0.81-0.11,1.461-0.323,1.967
	c-0.378,1.089-1.072,1.607-2.081,1.607c-0.913,0-2.121-1.36-3.726-4.003c-1.185-2.19-2.542-3.998-4.035-5.488v10.275
	c0,5.503-2.505,8.223-7.384,8.223c-0.62,0-0.953-0.361-1.006-1.134c-0.136-1.109-0.769-2.241-1.842-3.242
	c-0.671-0.665-1.669-1.184-3.13-1.546c0.135-0.261,0.237-0.609,0.237-1.038c0.98,0.071,3.17,0.109,6.508,0.109
	c0.78,0,1.118-0.586,1.118-1.681v-9.838c-1.8,2.284-3.793,4.271-6.061,5.974c-0.062,0.381-0.165,1.117-0.248,2.174
	c0,0.302-0.165,0.447-0.452,0.447c-0.376,0-1.765-1.837-4.136-5.47c4.066-1.342,7.727-3.165,10.897-5.484v-12.358
	c0-2.261-0.145-3.87-0.482-4.895c1.9,0.286,3.404,0.563,4.551,0.885c3.865-2.711,7.07-5.373,9.633-8.029H73.315
	c-4.778,0.179-7.668,0.439-8.701,0.791c-0.633-1.408-1.203-2.574-1.6-3.45c2.705,0.601,6.04,0.876,9.982,0.876h20.601
	C96.065,461.975,97.587,460.99,98.111,460.99 M71.984,476.095c4.765,2.778,7.133,5.624,7.133,8.453c0,2.114-0.904,3.189-2.645,3.231
	c-1.666,0-2.494-0.838-2.494-2.547c0-0.567-0.181-1.451-0.472-2.579c-0.233-1.058-0.614-2.301-1.133-3.635
	c-0.519-1.145-0.942-1.969-1.286-2.427C71.606,476.26,71.872,476.095,71.984,476.095"/>
<rect fill="none" width="386.793" height="521.242"/>
<path d="M217.911,490.569c0.452,0.193,0.971,0.548,1.533,0.941c2.504,2.198,3.756,3.545,3.756,4.165c0,0.6-0.195,0.857-0.652,0.857
	h-33.058c-0.556,0.9-1.251,1.78-1.985,2.547c-1.275,1.808-2.851,3.434-4.735,4.85h24.435c1.666-1.927,2.862-2.938,3.482-2.971
	c0.611,0.032,1.783,0.695,3.503,1.999c1.646,1.171,2.433,2.053,2.433,2.608c0,0.402-0.36,0.821-1.066,1.228
	c-1.032,0.662-1.698,1.188-1.854,1.52v5.688c0.198,2.204,0.352,3.637,0.352,4.259c0,1.434-1.209,2.135-3.467,2.196
	c-1.717,0-2.604-0.375-2.655-1.171v-2.313h-25.404c0,0.458,0,0.862,0.043,1.246c-0.29,1.243-1.752,1.863-4.384,1.863
	c-1.323,0-1.975-0.421-1.975-1.23c0.061-2.289,0.091-4.85,0.091-7.571v-3.427c-3.375,1.704-7.376,3.197-11.996,4.482
	c-0.248,0-0.495-0.301-0.695-0.896c9.105-4.15,15.094-8.521,17.915-13.155c0.525-0.737,0.9-1.328,1.105-1.751h-2.422
	c-7.698,0-12.507,0.303-14.424,0.838c-0.412-1.128-0.899-2.286-1.522-3.438c3.308,0.447,8.954,0.691,16.92,0.691h32.259
	c1.834-2.22,3.15-3.633,4.021-4.152C217.579,490.473,217.754,490.497,217.911,490.569 M185.736,471.953
	c0.437,0,1.286,0.623,2.502,1.811c1.35,1.06,2.079,1.803,2.194,2.29c0,0.579-0.238,0.898-0.703,0.974h-9.002v7.574
	c3.751-0.366,7.229-1.034,10.471-1.979c0.139,0.404,0.282,0.777,0.418,1.15c-6.548,3.209-14.094,5.322-22.691,6.393
	c-0.341,2.028-0.732,3.074-1.224,3.074c-0.261,0-0.711-0.762-1.331-2.318c-0.998-2.746-1.661-4.859-2.065-6.443
	c2.499,0.279,5.046,0.447,7.614,0.592c1.172,0,2.298-0.029,3.309-0.072v-7.926c-5.164,0.127-7.767,0.275-7.788,0.5
	c-0.431-0.78-0.889-1.934-1.331-3.37c0.9,0.277,3.955,0.57,9.119,0.842v-6.921c-6.124,0.134-9.191,0.288-9.257,0.517
	c-0.352-0.801-0.743-1.905-1.23-3.318c0.91,0.273,4.245,0.562,10.069,0.833h6.715c2.157-2.281,3.604-3.481,4.246-3.502
	c0.53,0,1.519,0.628,3.023,1.944c1.523,1.152,2.404,1.971,2.614,2.446c0,0.688-0.274,1.048-0.761,1.08h-9.92v6.969h1.352
	C184.001,473.082,185.201,472.027,185.736,471.953 M182.393,515.216h25.537v-9.595h-25.68v5.271
	C182.25,512.265,182.279,513.688,182.393,515.216 M197.301,468.12h2.971c0.663-2.502,1.161-5.163,1.4-7.972
	c5.326,1.535,8,2.573,8,3.17c0,0.725-1.034,1.188-3.209,1.348c-0.865,1.213-2.014,2.331-3.444,3.454h8.219
	c1.584-1.671,2.681-2.502,3.304-2.528c0.496,0.026,1.592,0.634,3.242,1.831c1.49,1.078,2.229,1.858,2.229,2.374
	c0,0.41-0.314,0.785-0.899,1.15c-0.916,0.644-1.462,1.08-1.647,1.355v9.253c0.248,3.585,0.381,5.852,0.381,6.875
	c0,1.381-1.064,2.041-3.159,2.041c-1.634,0-2.433-0.34-2.534-1.021v-1.277h-13.964v1.671c-0.201,1.203-1.319,1.8-3.257,1.8
	c-1.257,0-1.999-0.208-2.228-0.597c0-3.931,0.059-7.7,0.229-11.504v-7.591c-0.099-3.236-0.229-5.121-0.437-5.681L197.301,468.12z
	 M212.15,469.797h-13.964v7.229h13.964V469.797z M198.187,486.505h13.964v-7.703h-13.964V486.505z"/>
<rect fill="none" width="386.793" height="521.242"/>
<path d="M288.448,476.894h-3.604c-1.143,0-2.252,0.134-3.256,0.395c-0.676-1.004-1.159-2.041-1.484-3.13
	c1.057,0.532,2.18,0.767,3.37,0.767h5.717v-9.221c-0.091-1.834-0.229-3.656-0.446-5.439c1.879,0.279,3.898,0.574,6.063,0.899
	c1.563,0.327,2.357,0.729,2.357,1.24c0,0.36-0.336,0.565-1.041,0.71c-1.078,0.392-1.625,0.677-1.625,0.93v10.881h0.408
	c1.704-2.058,2.822-3.242,3.297-3.532c0.178,0,0.293,0.046,0.293,0.052c0.27,0.063,0.781,0.4,1.531,1.134h4.385v-4.222
	c-0.072-2.466-0.188-3.913-0.389-4.413l4.664,1.848h7.867c-0.072-2.385-0.139-4.299-0.283-5.76c5.742,0.809,8.639,1.563,8.639,2.234
	c0,0.518-0.363,0.85-1.068,0.995c-1.207,0.445-1.828,0.924-1.828,1.334v1.195h6.66c1.418-1.746,2.414-2.646,3.008-2.676
	c0.494,0.028,1.457,0.637,3.084,1.766c1.348,1,2.068,1.725,2.068,2.23c0,0.394-0.389,0.696-0.996,0.979
	c-0.986,0.66-1.508,1.076-1.713,1.305v3.185h0.09c1.334-2.023,2.23-3.032,2.723-3.109c0.262,0,0.98,0.663,2.199,1.977
	c1.004,1.08,1.521,1.751,1.521,1.962c0,0.556-0.133,0.838-0.447,0.838h-6.086v1.885c0.205,2.602,0.275,4.313,0.275,5.078
	c0,1.243-0.971,1.842-2.922,1.914c-1.43,0-2.227-0.353-2.297-0.998v-0.12h-7.168v4.373h6.959c1.51-1.565,2.566-2.406,3.086-2.446
	c0.498,0.04,1.504,0.604,3.098,1.69c1.334,1.057,2.043,1.789,2.043,2.263c0,0.359-0.301,0.689-0.881,1.051
	c-0.703,0.643-1.162,1.063-1.336,1.28v2.935c0.217,1.102,0.35,1.813,0.35,2.103c0,1.225-1.002,1.837-2.908,1.896
	c-1.535,0-2.303-0.349-2.332-1.055v-0.628h-9.84l-3.256,4.515h15.486c1.523-1.72,2.674-2.789,3.283-3.236h0.447
	c0.447,0.219,0.865,0.521,1.275,0.905c2.1,1.802,3.15,2.974,3.15,3.509c0,0.545-0.262,0.824-0.684,0.824h-7.219
	c-1.332,3.733-3.299,6.878-5.961,9.465c7.104,1.848,10.754,4.299,10.959,7.41c0,0.81-0.029,1.356-0.248,1.72
	c-0.23,0.441-0.756,0.671-1.551,0.671c-0.738,0-3.416-1.581-8.146-4.823c-1.359-0.798-2.857-1.563-4.463-2.198
	c-5.641,3.79-13.324,5.903-23,6.352c-0.096-0.102-0.139-0.218-0.211-0.404c7.949-2.156,14.104-4.765,18.514-7.831
	c-2.535-0.924-5.285-1.805-8.199-2.532c-0.707,1.409-2.27,2.157-4.744,2.202c-1.596-0.045-2.404-0.563-2.404-1.597
	c2.07-2.065,4.316-4.842,6.832-8.433c-5.438,0-8.813,0.299-10.191,0.782c-0.414-1.146-0.91-2.246-1.504-3.429
	c2.293,0.447,6.166,0.646,11.695,0.646h1.289c0.941-1.411,1.867-2.935,2.818-4.516h-5.684v0.91
	c-0.244,1.146-1.242,1.738-3.053,1.738c-1.117,0-1.813-0.173-2.057-0.506c0-2.144,0.039-4.154,0.168-6.093v-3.938
	c-0.027-1.689-0.168-2.681-0.453-2.983l4.805,1.783h8.604v-4.373h-7.174c-0.205,1.118-1.262,1.69-3.098,1.69
	c-1.176,0-1.842-0.197-2.086-0.572c0-3.069,0.119-5.997,0.215-8.877h-2.656c0.719,0.847,1.094,1.469,1.094,1.842
	c0,0.532-0.328,0.81-0.979,0.81h-7.373v5.374c5.238,2.894,7.863,5.641,7.863,8.26c0,1.304-0.424,2.188-1.148,2.681
	c-0.5,0.364-1.123,0.543-1.775,0.543c-1.32,0-2.188-1.345-2.751-4.033c-0.449-2.038-1.187-3.832-2.188-5.344v21.551
	c0.049,6.38,0.176,10.9,0.267,13.58c0,0.967-1.28,1.438-3.835,1.438c-1.303,0-1.93-0.37-1.93-1.131
	c0.119-2.264,0.19-6.962,0.19-14.075v-16.133c-2.422,5.585-5.282,9.843-8.431,12.827c-0.355-0.112-0.656-0.353-0.854-0.697
	C284.154,494.434,286.986,486.166,288.448,476.894 M308.542,493.635h8.014v-5.541h-8.014V493.635z M309.381,472.576h7.174v-5.107
	h-7.174V472.576z M309.381,480.188h7.174v-5.946h-7.174V480.188z M310.872,508.802c3.932,0.352,7.453,0.847,10.477,1.397
	c2.828-2.505,4.604-5.224,5.369-8.224H315.68L310.872,508.802z M322.014,472.576h7.168v-5.107h-7.168V472.576z M322.014,480.188
	h7.168v-5.946h-7.168V480.188z M322.014,493.635h8.078v-5.541h-8.078V493.635z"/>
</svg>
